# This file uses centimeters as units for non-parametric coordinates.

mtllib Flag_TrampledV2_RailUnion.mtl
g default
v 1.436182 0.049707 2.967692
v 1.174809 0.153301 2.522215
v 0.917217 0.250511 2.068365
v 0.673736 0.298792 1.590294
v 0.441463 0.347328 1.116824
v 0.214352 0.383443 0.650546
v -0.029203 0.368693 0.207459
v -0.396078 0.080395 -0.017776
v -0.783533 0.001439 -0.379091
v -1.160222 0.003535 -0.763681
v -1.507095 0.002310 -1.174081
v -1.796628 -0.004290 -1.616033
v -2.035234 -0.015881 -2.089921
v -2.430876 0.019085 -2.432952
v -2.906076 0.038636 -2.665474
v -3.407817 0.034377 -2.840306
v -3.914430 0.051711 -2.990053
v 1.862210 0.166440 2.748562
v 1.589963 0.349741 2.339014
v 1.318101 0.444572 1.885616
v 1.083615 0.460091 1.403758
v 0.874298 0.426859 0.910801
v 0.644540 0.294837 0.425504
v 0.327628 0.062209 0.008775
v -0.063415 -0.042539 -0.356375
v -0.444170 -0.022510 -0.718261
v -0.820646 0.090264 -1.093552
v -1.177497 0.248186 -1.441031
v -1.538144 0.372214 -1.784612
v -1.991851 0.477608 -2.087043
v -2.509561 0.477251 -2.250761
v -3.027765 0.410633 -2.359991
v -3.541210 0.302614 -2.442137
v -4.042912 0.174034 -2.524758
v 2.255518 0.089013 2.444257
v 1.932546 0.141513 2.051465
v 1.540419 0.027884 1.724286
v 1.154265 -0.021410 1.384229
v 0.765727 -0.016347 1.039259
v 0.377511 -0.011877 0.684085
v -0.008685 0.090435 0.340133
v -0.356965 0.228337 -0.050331
v -0.687067 0.296116 -0.424908
v -1.022714 0.398951 -0.783690
v -1.302987 0.655608 -1.148443
v -1.634324 0.789851 -1.547985
v -2.143820 0.699765 -1.674847
v -2.636601 0.582429 -1.789264
v -3.129606 0.460760 -1.885580
v -3.626665 0.326284 -1.968471
v -4.127429 0.186534 -2.033948
v 2.621263 -0.043215 2.108859
v 2.248072 -0.070071 1.742057
v 1.867415 -0.066624 1.377109
v 1.480664 -0.062129 1.024022
v 1.094188 -0.057174 0.679434
v 0.716745 0.062583 0.340394
v 0.357304 0.207645 -0.005526
v -0.016830 0.091057 -0.369913
v -0.374158 0.077153 -0.749023
v -0.712725 0.163280 -1.137908
v -1.042074 0.396825 -1.507540
v -1.560014 0.296504 -1.550169
v -2.077579 0.219840 -1.548058
v -2.592410 0.153397 -1.539560
v -3.113665 0.114429 -1.528797
v -3.638097 0.116822 -1.519891
v -4.161231 0.149381 -1.525520
v 2.964237 -0.114637 1.749880
v 2.583710 -0.110966 1.389069
v 2.198814 -0.107324 1.022850
v 1.813163 -0.103167 0.664956
v 1.423852 -0.098368 0.314420
v 1.041064 -0.035772 -0.027239
v 0.675675 0.056763 -0.368782
v 0.315762 0.197128 -0.725443
v -0.096793 0.430594 -0.977888
v -0.574252 0.648398 -1.070654
v -1.101316 0.642880 -1.058701
v -1.582107 0.364132 -1.063460
v -2.058607 0.143861 -1.069282
v -2.579826 0.076545 -1.055753
v -3.105540 0.110248 -1.040529
v -3.632507 0.143819 -1.032427
v -4.155287 0.177090 -1.025224
v 3.302296 -0.156443 1.383340
v 2.916050 -0.152079 1.028486
v 2.529065 -0.147631 0.674298
v 2.144684 -0.144134 0.306067
v 1.761650 -0.031927 -0.046110
v 1.369622 0.179662 -0.338117
v 0.945894 0.442636 -0.535537
v 0.463004 0.669076 -0.614427
v -0.063977 0.767425 -0.598335
v -0.601143 0.703156 -0.574116
v -1.079875 0.504079 -0.577723
v -1.538904 0.260147 -0.598466
v -2.043435 0.092698 -0.583915
v -2.569041 0.103193 -0.565350
v -3.093898 0.136912 -0.552189
v -3.619603 0.170665 -0.539412
v -4.142572 0.204209 -0.527292
v 3.636287 -0.197816 1.019989
v 3.238751 -0.192564 0.668311
v 2.857844 -0.089124 0.311661
v 2.454413 0.137502 0.033119
v 2.010474 0.398906 -0.115521
v 1.525413 0.622317 -0.163470
v 1.008713 0.761673 -0.156272
v 0.478203 0.789565 -0.128744
v -0.046051 0.697582 -0.110458
v -0.532397 0.512012 -0.113134
v -1.009876 0.308115 -0.125958
v -1.504837 0.139500 -0.120351
v -2.028797 0.095640 -0.094824
v -2.553745 0.129674 -0.076189
v -3.078999 0.163564 -0.060425
v -3.603146 0.197344 -0.045452
v -4.126461 0.231083 -0.030221
v 3.943224 -0.201155 0.615578
v 3.540868 0.082770 0.377888
v 3.086598 0.358848 0.286434
v 2.590036 0.554235 0.280152
v 2.072387 0.667459 0.300455
v 1.550570 0.729405 0.317562
v 1.024345 0.765216 0.338028
v 0.502212 0.710069 0.357645
v 0.007293 0.537329 0.358510
v -0.465677 0.318234 0.340022
v -0.964238 0.157645 0.345275
v -1.485821 0.088416 0.371403
v -2.010304 0.121941 0.394713
v -2.535552 0.156052 0.414408
v -3.060522 0.190025 0.431911
v -3.584686 0.223919 0.448951
v -4.108184 0.257766 0.465888
v 4.140276 0.238685 0.725711
v 3.629552 0.401526 0.759913
v 3.106001 0.468658 0.778505
v 2.581615 0.487198 0.776355
v 2.061146 0.482700 0.760540
v 1.545065 0.537333 0.774359
v 1.045656 0.682078 0.825010
v 0.531741 0.610720 0.844418
v 0.058868 0.386307 0.826676
v -0.421330 0.176902 0.814644
v -0.941219 0.096027 0.837425
v -1.465822 0.114016 0.863343
v -1.990056 0.148192 0.885310
v -2.515674 0.182376 0.905875
v -3.040483 0.216416 0.924787
v -3.564739 0.250382 0.942986
v -4.088722 0.284330 0.961189
v 4.134780 0.130420 1.200055
v 3.613901 0.180646 1.205879
v 3.093230 0.225089 1.210105
v 2.570451 0.233629 1.201673
v 2.046537 0.239531 1.193830
v 1.540664 0.375853 1.242681
v 1.080694 0.621008 1.314711
v 0.566384 0.492308 1.325619
v 0.114856 0.228128 1.291869
v -0.396183 0.096741 1.305272
v -0.920819 0.106042 1.331682
v -1.444291 0.140262 1.355293
v -1.969463 0.174523 1.377750
v -2.494710 0.208683 1.398311
v -3.019723 0.242782 1.418023
v -3.544223 0.276799 1.436852
v -4.068563 0.310799 1.455587
v 4.111409 -0.175398 1.590239
v 3.591884 -0.111073 1.606905
v 3.080637 -0.005606 1.649421
v 2.559975 0.028420 1.652001
v 2.040119 0.072701 1.660737
v 1.561707 0.275222 1.723530
v 1.105124 0.526117 1.796562
v 0.616259 0.343942 1.795970
v 0.150094 0.108011 1.773033
v -0.374676 0.098044 1.800886
v -0.897101 0.132207 1.824645
v -1.422079 0.166528 1.848399
v -1.947669 0.200765 1.869900
v -2.473940 0.235027 1.891144
v -2.999422 0.269168 1.911106
v -3.524322 0.303240 1.930462
v -4.048571 0.337236 1.949218
vt 0.649168 0.520702
vt 0.649168 0.489005
vt 0.679005 0.489005
vt 0.679005 0.520703
vt 0.649168 0.457308
vt 0.679005 0.457308
vt 0.649168 0.425611
vt 0.679005 0.425611
vt 0.649168 0.393914
vt 0.679005 0.393914
vt 0.649168 0.362217
vt 0.679005 0.362217
vt 0.649168 0.330519
vt 0.679005 0.330520
vt 0.649168 0.298823
vt 0.679005 0.298822
vt 0.649168 0.267125
vt 0.679005 0.267125
vt 0.649168 0.235428
vt 0.679005 0.235428
vt 0.649168 0.203731
vt 0.679005 0.203731
vt 0.649168 0.172034
vt 0.679005 0.172034
vt 0.649168 0.140337
vt 0.679004 0.140337
vt 0.649167 0.108640
vt 0.679004 0.108640
vt 0.649167 0.076943
vt 0.679005 0.076943
vt 0.649167 0.045245
vt 0.679005 0.045245
vt 0.649168 0.013548
vt 0.679005 0.013548
vt 0.708842 0.489005
vt 0.708842 0.520703
vt 0.708842 0.457308
vt 0.708842 0.425611
vt 0.708842 0.393914
vt 0.708842 0.362217
vt 0.708842 0.330520
vt 0.708842 0.298822
vt 0.708842 0.267126
vt 0.708842 0.235428
vt 0.708842 0.203731
vt 0.708842 0.172034
vt 0.708842 0.140337
vt 0.708842 0.108640
vt 0.708842 0.076943
vt 0.708842 0.045246
vt 0.708842 0.013548
vt 0.738679 0.489005
vt 0.738679 0.520703
vt 0.738679 0.457308
vt 0.738679 0.425611
vt 0.738679 0.393914
vt 0.738679 0.362217
vt 0.738679 0.330519
vt 0.738679 0.298822
vt 0.738679 0.267126
vt 0.738679 0.235428
vt 0.738679 0.203731
vt 0.738679 0.172034
vt 0.738679 0.140337
vt 0.738679 0.108640
vt 0.738679 0.076943
vt 0.738679 0.045245
vt 0.738679 0.013548
vt 0.768516 0.489005
vt 0.768516 0.520702
vt 0.768516 0.457308
vt 0.768516 0.425611
vt 0.768516 0.393914
vt 0.768516 0.362217
vt 0.768516 0.330520
vt 0.768516 0.298822
vt 0.768516 0.267125
vt 0.768516 0.235428
vt 0.768516 0.203731
vt 0.768516 0.172034
vt 0.768516 0.140337
vt 0.768516 0.108640
vt 0.768516 0.076943
vt 0.768516 0.045246
vt 0.768516 0.013548
vt 0.798353 0.489005
vt 0.798353 0.520702
vt 0.798353 0.457308
vt 0.798353 0.425611
vt 0.798353 0.393914
vt 0.798353 0.362217
vt 0.798353 0.330520
vt 0.798353 0.298822
vt 0.798353 0.267125
vt 0.798353 0.235428
vt 0.798353 0.203731
vt 0.798353 0.172034
vt 0.798353 0.140337
vt 0.798353 0.108640
vt 0.798353 0.076943
vt 0.798353 0.045245
vt 0.798353 0.013548
vt 0.828190 0.489005
vt 0.828190 0.520702
vt 0.828190 0.457308
vt 0.828190 0.425611
vt 0.828190 0.393914
vt 0.828190 0.362217
vt 0.828190 0.330519
vt 0.828190 0.298822
vt 0.828190 0.267125
vt 0.828190 0.235428
vt 0.828190 0.203731
vt 0.828190 0.172034
vt 0.828190 0.140337
vt 0.828190 0.108640
vt 0.828190 0.076943
vt 0.828190 0.045245
vt 0.828190 0.013548
vt 0.858027 0.489005
vt 0.858027 0.520702
vt 0.858027 0.457308
vt 0.858027 0.425611
vt 0.858027 0.393914
vt 0.858027 0.362217
vt 0.858027 0.330519
vt 0.858027 0.298822
vt 0.858027 0.267125
vt 0.858027 0.235428
vt 0.858027 0.203731
vt 0.858027 0.172034
vt 0.858027 0.140337
vt 0.858027 0.108640
vt 0.858027 0.076943
vt 0.858027 0.045245
vt 0.858027 0.013548
vt 0.887864 0.489005
vt 0.887864 0.520702
vt 0.887864 0.457308
vt 0.887864 0.425611
vt 0.887864 0.393914
vt 0.887864 0.362217
vt 0.887864 0.330519
vt 0.887864 0.298823
vt 0.887864 0.267125
vt 0.887864 0.235428
vt 0.887864 0.203731
vt 0.887864 0.172034
vt 0.887864 0.140337
vt 0.887864 0.108640
vt 0.887864 0.076943
vt 0.887864 0.045246
vt 0.887864 0.013548
vt 0.917701 0.489006
vt 0.917701 0.520702
vt 0.917701 0.457308
vt 0.917701 0.425611
vt 0.917701 0.393914
vt 0.917701 0.362217
vt 0.917701 0.330519
vt 0.917701 0.298822
vt 0.917701 0.267125
vt 0.917701 0.235428
vt 0.917701 0.203731
vt 0.917701 0.172034
vt 0.917701 0.140337
vt 0.917701 0.108640
vt 0.917701 0.076943
vt 0.917701 0.045245
vt 0.917701 0.013548
vt 0.947538 0.489006
vt 0.947538 0.520702
vt 0.947538 0.457308
vt 0.947538 0.425611
vt 0.947538 0.393914
vt 0.947538 0.362217
vt 0.947538 0.330519
vt 0.947538 0.298823
vt 0.947538 0.267125
vt 0.947538 0.235428
vt 0.947538 0.203731
vt 0.947538 0.172034
vt 0.947538 0.140337
vt 0.947538 0.108640
vt 0.947538 0.076943
vt 0.947538 0.045246
vt 0.947538 0.013548
vn 0.147813 -0.906145 -0.396299
vn 0.211879 -0.903325 -0.372975
vn -0.110102 -0.988607 -0.102636
vn -0.112450 -0.970634 -0.212660
vn 0.291099 -0.913921 -0.282860
vn -0.181023 -0.976547 0.116560
vn 0.265936 -0.949508 -0.166469
vn -0.366994 -0.881515 0.297063
vn 0.128433 -0.991586 -0.016173
vn -0.571335 -0.687175 0.448739
vn -0.100710 -0.962835 0.250614
vn -0.700178 -0.343747 0.625771
vn -0.137981 -0.855077 0.499805
vn -0.305903 0.160572 0.938424
vn -0.055199 -0.924294 0.377669
vn 0.947269 -0.144478 0.286021
vn -0.046933 -0.998818 0.012615
vn 0.748755 -0.398265 -0.529859
vn 0.062541 -0.971383 -0.229136
vn 0.750255 -0.313920 -0.581870
vn 0.302456 -0.858209 -0.414726
vn 0.777563 -0.176083 -0.603648
vn 0.575107 -0.577817 -0.579120
vn 0.691583 0.063654 -0.719487
vn 0.603721 -0.079109 -0.793261
vn 0.434385 0.480004 -0.762172
vn 0.372747 0.372183 -0.850023
vn 0.165801 0.755103 -0.634294
vn 0.169288 0.651529 -0.739494
vn -0.003823 0.874877 -0.484330
vn 0.039865 0.839347 -0.542132
vn -0.100239 0.938832 -0.329465
vn -0.005183 0.910526 -0.413420
vn -0.130626 0.959523 -0.249503
vn -0.320041 -0.916957 0.238251
vn -0.318556 -0.941684 0.108417
vn -0.383168 -0.837128 0.390383
vn -0.519891 -0.745208 0.417587
vn -0.695370 -0.595818 0.401823
vn -0.857923 -0.508486 0.073556
vn -0.221132 -0.396731 -0.890901
vn 0.694224 -0.350400 -0.628708
vn 0.585178 -0.522010 -0.620543
vn 0.311327 -0.581058 -0.751962
vn 0.835201 -0.414288 -0.361669
vn 0.505712 0.802693 0.316131
vn -0.013790 0.914603 0.404118
vn -0.151693 0.920475 0.360161
vn -0.185587 0.940743 0.283830
vn -0.189782 0.969561 0.154710
vn -0.185410 0.979259 0.081699
vn -0.133948 -0.976673 0.167834
vn -0.166627 -0.973475 0.156788
vn -0.081402 -0.987270 0.136642
vn -0.062351 -0.995242 0.074872
vn -0.104136 -0.994562 -0.001483
vn -0.165979 -0.980766 -0.102706
vn -0.116168 -0.990739 -0.070295
vn -0.060360 -0.996053 -0.065074
vn -0.089366 -0.958025 -0.272400
vn -0.223726 -0.802475 -0.553155
vn -0.944919 0.056416 -0.322406
vn -0.477194 0.664305 0.575312
vn -0.216945 0.735420 0.641944
vn -0.126186 0.829742 0.543695
vn -0.073273 0.924347 0.374452
vn -0.041459 0.982259 0.182888
vn -0.026292 0.995406 0.092064
vn -0.062691 -0.995837 0.066168
vn -0.062757 -0.995102 0.076373
vn -0.062619 -0.996471 0.055903
vn -0.063148 -0.997846 0.017764
vn -0.089975 -0.989473 -0.113346
vn -0.113376 -0.953222 -0.280204
vn 0.028482 -0.889825 -0.455412
vn 0.288628 -0.578633 -0.762809
vn 0.378644 0.055416 -0.923882
vn 0.242989 0.732401 -0.636039
vn -0.199114 0.962921 -0.182038
vn -0.373402 0.927367 0.023671
vn -0.207522 0.973796 0.093042
vn -0.028969 0.998169 0.053103
vn 0.039328 0.999133 -0.013658
vn 0.055521 0.997303 -0.047997
vn 0.062634 0.996470 -0.055903
vn -0.062988 -0.997774 0.021913
vn -0.062619 -0.996471 0.055902
vn -0.030660 -0.995106 -0.093933
vn 0.045134 -0.942094 -0.332297
vn 0.143113 -0.750541 -0.645141
vn 0.267531 -0.381122 -0.884971
vn 0.363428 0.146297 -0.920064
vn 0.296328 0.662853 -0.687616
vn 0.078967 0.958017 -0.275623
vn -0.173085 0.978717 0.110252
vn -0.362048 0.890315 0.276152
vn -0.357994 0.906326 0.224529
vn -0.142541 0.987004 0.074199
vn 0.028701 0.999154 -0.029447
vn 0.062577 0.996476 -0.055854
vn 0.062623 0.996471 -0.055898
vn 0.062626 0.996471 -0.055894
vn 0.007344 -0.945430 -0.325744
vn -0.053513 -0.984732 -0.165649
vn 0.167192 -0.715790 -0.678006
vn 0.312447 -0.244724 -0.917871
vn 0.363329 0.281062 -0.888255
vn 0.329694 0.682893 -0.651889
vn 0.201152 0.915693 -0.347913
vn -0.007087 0.999063 -0.042688
vn -0.211906 0.952163 0.220186
vn -0.320690 0.876950 0.357933
vn -0.322949 0.885679 0.333581
vn -0.202546 0.962843 0.178629
vn -0.024231 0.999575 0.016198
vn 0.057321 0.997112 -0.049810
vn 0.062619 0.996471 -0.055903
vn 0.062619 0.996471 -0.055902
vn 0.062618 0.996471 -0.055902
vn 0.332457 -0.057353 -0.941373
vn 0.247805 -0.374198 -0.893627
vn 0.377081 0.511953 -0.771826
vn 0.306856 0.841658 -0.444355
vn 0.230351 0.964179 -0.131519
vn 0.190030 0.981085 0.036885
vn 0.053572 0.992882 0.106369
vn -0.187956 0.961793 0.199063
vn -0.344839 0.888846 0.301726
vn -0.330249 0.888960 0.317311
vn -0.205617 0.955643 0.210873
vn -0.052305 0.997082 0.055611
vn 0.044855 0.998360 -0.035577
vn 0.062619 0.996471 -0.055903
vn 0.062619 0.996471 -0.055903
vn 0.062618 0.996471 -0.055903
vn 0.062618 0.996471 -0.055902
vn 0.308062 0.943137 -0.124859
vn 0.375903 0.881079 -0.287048
vn 0.177115 0.974545 0.137451
vn 0.080608 0.946003 0.313974
vn 0.099908 0.916220 0.388019
vn 0.221920 0.922200 0.316700
vn 0.069670 0.973460 0.217993
vn -0.284444 0.929068 0.236483
vn -0.386417 0.878807 0.279963
vn -0.252648 0.943146 0.215973
vn -0.071295 0.994806 0.072648
vn 0.031663 0.999105 -0.028039
vn 0.062453 0.996492 -0.055709
vn 0.062619 0.996471 -0.055901
vn 0.062620 0.996471 -0.055902
vn 0.062618 0.996471 -0.055903
vn 0.062618 0.996471 -0.055903
vn 0.138991 0.862613 0.486395
vn 0.153279 0.866408 0.475230
vn 0.075336 0.871137 0.485227
vn 0.021504 0.889824 0.455796
vn 0.143177 0.910234 0.388555
vn 0.357064 0.899071 0.253330
vn 0.110793 0.970937 0.212147
vn -0.353290 0.899567 0.256837
vn -0.349571 0.905375 0.241034
vn -0.118208 0.987132 0.107687
vn 0.021730 0.999681 -0.012835
vn 0.058956 0.996924 -0.051632
vn 0.062619 0.996471 -0.055902
vn 0.062619 0.996471 -0.055902
vn 0.062620 0.996471 -0.055902
vn 0.062619 0.996471 -0.055903
vn 0.062618 0.996471 -0.055902
vn 0.122847 0.815246 0.565935
vn 0.100155 0.791213 0.603284
vn 0.090009 0.869917 0.484914
vn 0.039495 0.911861 0.408595
vn 0.194658 0.927995 0.317701
vn 0.416572 0.886440 0.201721
vn 0.108769 0.968767 0.222846
vn -0.380833 0.884443 0.269681
vn -0.308575 0.928296 0.207480
vn -0.044222 0.997843 0.048518
vn 0.051348 0.997765 -0.042760
vn 0.062619 0.996471 -0.055900
vn 0.062619 0.996471 -0.055903
vn 0.062619 0.996471 -0.055905
vn 0.062620 0.996471 -0.055904
vn 0.062619 0.996471 -0.055904
vn 0.062618 0.996471 -0.055903
s 1
g Flag34
usemtl lambert3SG
f 1/1/1 2/2/2 19/3/3 18/4/4
f 2/2/2 3/5/5 20/6/6 19/3/3
f 3/5/5 4/7/7 21/8/8 20/6/6
f 4/7/7 5/9/9 22/10/10 21/8/8
f 5/9/9 6/11/11 23/12/12 22/10/10
f 6/11/11 7/13/13 24/14/14 23/12/12
f 7/13/13 8/15/15 25/16/16 24/14/14
f 8/15/15 9/17/17 26/18/18 25/16/16
f 9/17/17 10/19/19 27/20/20 26/18/18
f 10/19/19 11/21/21 28/22/22 27/20/20
f 11/21/21 12/23/23 29/24/24 28/22/22
f 12/23/23 13/25/25 30/26/26 29/24/24
f 13/25/25 14/27/27 31/28/28 30/26/26
f 14/27/27 15/29/29 32/30/30 31/28/28
f 15/29/29 16/31/31 33/32/32 32/30/30
f 16/31/31 17/33/33 34/34/34 33/32/32
f 18/4/4 19/3/3 36/35/35 35/36/36
f 19/3/3 20/6/6 37/37/37 36/35/35
f 20/6/6 21/8/8 38/38/38 37/37/37
f 21/8/8 22/10/10 39/39/39 38/38/38
f 22/10/10 23/12/12 40/40/40 39/39/39
f 23/12/12 24/14/14 41/41/41 40/40/40
f 24/14/14 25/16/16 42/42/42 41/41/41
f 25/16/16 26/18/18 43/43/43 42/42/42
f 26/18/18 27/20/20 44/44/44 43/43/43
f 27/20/20 28/22/22 45/45/45 44/44/44
f 28/22/22 29/24/24 46/46/46 45/45/45
f 29/24/24 30/26/26 47/47/47 46/46/46
f 30/26/26 31/28/28 48/48/48 47/47/47
f 31/28/28 32/30/30 49/49/49 48/48/48
f 32/30/30 33/32/32 50/50/50 49/49/49
f 33/32/32 34/34/34 51/51/51 50/50/50
f 35/36/36 36/35/35 53/52/52 52/53/53
f 36/35/35 37/37/37 54/54/54 53/52/52
f 37/37/37 38/38/38 55/55/55 54/54/54
f 38/38/38 39/39/39 56/56/56 55/55/55
f 39/39/39 40/40/40 57/57/57 56/56/56
f 40/40/40 41/41/41 58/58/58 57/57/57
f 41/41/41 42/42/42 59/59/59 58/58/58
f 42/42/42 43/43/43 60/60/60 59/59/59
f 43/43/43 44/44/44 61/61/61 60/60/60
f 44/44/44 45/45/45 62/62/62 61/61/61
f 45/45/45 46/46/46 63/63/63 62/62/62
f 46/46/46 47/47/47 64/64/64 63/63/63
f 47/47/47 48/48/48 65/65/65 64/64/64
f 48/48/48 49/49/49 66/66/66 65/65/65
f 49/49/49 50/50/50 67/67/67 66/66/66
f 50/50/50 51/51/51 68/68/68 67/67/67
f 52/53/53 53/52/52 70/69/69 69/70/70
f 53/52/52 54/54/54 71/71/71 70/69/69
f 54/54/54 55/55/55 72/72/72 71/71/71
f 55/55/55 56/56/56 73/73/73 72/72/72
f 56/56/56 57/57/57 74/74/74 73/73/73
f 57/57/57 58/58/58 75/75/75 74/74/74
f 58/58/58 59/59/59 76/76/76 75/75/75
f 59/59/59 60/60/60 77/77/77 76/76/76
f 60/60/60 61/61/61 78/78/78 77/77/77
f 61/61/61 62/62/62 79/79/79 78/78/78
f 62/62/62 63/63/63 80/80/80 79/79/79
f 63/63/63 64/64/64 81/81/81 80/80/80
f 64/64/64 65/65/65 82/82/82 81/81/81
f 65/65/65 66/66/66 83/83/83 82/82/82
f 66/66/66 67/67/67 84/84/84 83/83/83
f 67/67/67 68/68/68 85/85/85 84/84/84
f 69/70/70 70/69/69 87/86/86 86/87/87
f 70/69/69 71/71/71 88/88/88 87/86/86
f 71/71/71 72/72/72 89/89/89 88/88/88
f 72/72/72 73/73/73 90/90/90 89/89/89
f 73/73/73 74/74/74 91/91/91 90/90/90
f 74/74/74 75/75/75 92/92/92 91/91/91
f 75/75/75 76/76/76 93/93/93 92/92/92
f 76/76/76 77/77/77 94/94/94 93/93/93
f 77/77/77 78/78/78 95/95/95 94/94/94
f 78/78/78 79/79/79 96/96/96 95/95/95
f 79/79/79 80/80/80 97/97/97 96/96/96
f 80/80/80 81/81/81 98/98/98 97/97/97
f 81/81/81 82/82/82 99/99/99 98/98/98
f 82/82/82 83/83/83 100/100/100 99/99/99
f 83/83/83 84/84/84 101/101/101 100/100/100
f 84/84/84 85/85/85 102/102/102 101/101/101
f 86/87/87 87/86/86 104/103/103 103/104/104
f 87/86/86 88/88/88 105/105/105 104/103/103
f 88/88/88 89/89/89 106/106/106 105/105/105
f 89/89/89 90/90/90 107/107/107 106/106/106
f 90/90/90 91/91/91 108/108/108 107/107/107
f 91/91/91 92/92/92 109/109/109 108/108/108
f 92/92/92 93/93/93 110/110/110 109/109/109
f 93/93/93 94/94/94 111/111/111 110/110/110
f 94/94/94 95/95/95 112/112/112 111/111/111
f 95/95/95 96/96/96 113/113/113 112/112/112
f 96/96/96 97/97/97 114/114/114 113/113/113
f 97/97/97 98/98/98 115/115/115 114/114/114
f 98/98/98 99/99/99 116/116/116 115/115/115
f 99/99/99 100/100/100 117/117/117 116/116/116
f 100/100/100 101/101/101 118/118/118 117/117/117
f 101/101/101 102/102/102 119/119/119 118/118/118
f 103/104/104 104/103/103 121/120/120 120/121/121
f 104/103/103 105/105/105 122/122/122 121/120/120
f 105/105/105 106/106/106 123/123/123 122/122/122
f 106/106/106 107/107/107 124/124/124 123/123/123
f 107/107/107 108/108/108 125/125/125 124/124/124
f 108/108/108 109/109/109 126/126/126 125/125/125
f 109/109/109 110/110/110 127/127/127 126/126/126
f 110/110/110 111/111/111 128/128/128 127/127/127
f 111/111/111 112/112/112 129/129/129 128/128/128
f 112/112/112 113/113/113 130/130/130 129/129/129
f 113/113/113 114/114/114 131/131/131 130/130/130
f 114/114/114 115/115/115 132/132/132 131/131/131
f 115/115/115 116/116/116 133/133/133 132/132/132
f 116/116/116 117/117/117 134/134/134 133/133/133
f 117/117/117 118/118/118 135/135/135 134/134/134
f 118/118/118 119/119/119 136/136/136 135/135/135
f 120/121/121 121/120/120 138/137/137 137/138/138
f 121/120/120 122/122/122 139/139/139 138/137/137
f 122/122/122 123/123/123 140/140/140 139/139/139
f 123/123/123 124/124/124 141/141/141 140/140/140
f 124/124/124 125/125/125 142/142/142 141/141/141
f 125/125/125 126/126/126 143/143/143 142/142/142
f 126/126/126 127/127/127 144/144/144 143/143/143
f 127/127/127 128/128/128 145/145/145 144/144/144
f 128/128/128 129/129/129 146/146/146 145/145/145
f 129/129/129 130/130/130 147/147/147 146/146/146
f 130/130/130 131/131/131 148/148/148 147/147/147
f 131/131/131 132/132/132 149/149/149 148/148/148
f 132/132/132 133/133/133 150/150/150 149/149/149
f 133/133/133 134/134/134 151/151/151 150/150/150
f 134/134/134 135/135/135 152/152/152 151/151/151
f 135/135/135 136/136/136 153/153/153 152/152/152
f 137/138/138 138/137/137 155/154/154 154/155/155
f 138/137/137 139/139/139 156/156/156 155/154/154
f 139/139/139 140/140/140 157/157/157 156/156/156
f 140/140/140 141/141/141 158/158/158 157/157/157
f 141/141/141 142/142/142 159/159/159 158/158/158
f 142/142/142 143/143/143 160/160/160 159/159/159
f 143/143/143 144/144/144 161/161/161 160/160/160
f 144/144/144 145/145/145 162/162/162 161/161/161
f 145/145/145 146/146/146 163/163/163 162/162/162
f 146/146/146 147/147/147 164/164/164 163/163/163
f 147/147/147 148/148/148 165/165/165 164/164/164
f 148/148/148 149/149/149 166/166/166 165/165/165
f 149/149/149 150/150/150 167/167/167 166/166/166
f 150/150/150 151/151/151 168/168/168 167/167/167
f 151/151/151 152/152/152 169/169/169 168/168/168
f 152/152/152 153/153/153 170/170/170 169/169/169
f 154/155/155 155/154/154 172/171/171 171/172/172
f 155/154/154 156/156/156 173/173/173 172/171/171
f 156/156/156 157/157/157 174/174/174 173/173/173
f 157/157/157 158/158/158 175/175/175 174/174/174
f 158/158/158 159/159/159 176/176/176 175/175/175
f 159/159/159 160/160/160 177/177/177 176/176/176
f 160/160/160 161/161/161 178/178/178 177/177/177
f 161/161/161 162/162/162 179/179/179 178/178/178
f 162/162/162 163/163/163 180/180/180 179/179/179
f 163/163/163 164/164/164 181/181/181 180/180/180
f 164/164/164 165/165/165 182/182/182 181/181/181
f 165/165/165 166/166/166 183/183/183 182/182/182
f 166/166/166 167/167/167 184/184/184 183/183/183
f 167/167/167 168/168/168 185/185/185 184/184/184
f 168/168/168 169/169/169 186/186/186 185/185/185
f 169/169/169 170/170/170 187/187/187 186/186/186
